<svg xmlns="http://www.w3.org/2000/svg" version="1.1" xmlns:xlink="http://www.w3.org/1999/xlink" width="200" height="200"><svg xmlns="http://www.w3.org/2000/svg" version="1.1" xmlns:xlink="http://www.w3.org/1999/xlink" viewBox="0 0 200 200"><rect width="200" height="200" fill="url('#gradient')"></rect><defs><linearGradient id="SvgjsLinearGradient1001" gradientTransform="rotate(39 0.5 0.5)"><stop offset="0%" stop-color="#ffffff"></stop><stop offset="100%" stop-color="#ffffff"></stop></linearGradient></defs><g><g fill="#f92e23" transform="matrix(3.913375796178344,0,0,3.913375796178344,5.802778808174622,128.9613235303551)" stroke="#eb193c" stroke-width="0"><path d="M6.69-4.82L4.50-4.82L4.50 0L1.07 0L1.07-14.22L6.75-14.22Q8.38-14.22 9.63-13.62Q10.89-13.02 11.58-11.91Q12.27-10.80 12.27-9.39L12.27-9.39Q12.27-7.31 10.78-6.07Q9.29-4.82 6.69-4.82L6.69-4.82ZM4.50-11.57L4.50-7.47L6.75-7.47Q7.74-7.47 8.27-7.97Q8.79-8.47 8.79-9.38L8.79-9.38Q8.79-10.37 8.25-10.97Q7.71-11.56 6.79-11.57L6.79-11.57L4.50-11.57ZM17.41-15L17.41 0L14.11 0L14.11-15L17.41-15ZM25.83 0L25.73-1.14Q24.69 0.20 22.91 0.20L22.91 0.20Q21.17 0.20 20.28-0.82Q19.38-1.83 19.38-3.72L19.38-3.72L19.38-10.57L22.68-10.57L22.68-3.70Q22.68-2.34 23.99-2.34L23.99-2.34Q25.13-2.34 25.61-3.15L25.61-3.15L25.61-10.57L28.92-10.57L28.92 0L25.83 0ZM31.26-13.19L34.55-13.19L34.55-10.57L36.29-10.57L36.29-8.28L34.55-8.28L34.55-3.45Q34.55-2.85 34.77-2.62Q34.98-2.38 35.62-2.38L35.62-2.38Q36.10-2.38 36.44-2.44L36.44-2.44L36.44-0.09Q35.55 0.20 34.58 0.20L34.58 0.20Q32.88 0.20 32.07-0.61Q31.26-1.41 31.26-3.04L31.26-3.04L31.26-8.28L29.91-8.28L29.91-10.57L31.26-10.57L31.26-13.19ZM36.88-4.82L36.88-5.38Q36.88-6.96 37.49-8.20Q38.11-9.43 39.26-10.10Q40.41-10.76 41.96-10.76L41.96-10.76Q44.34-10.76 45.70-9.29Q47.07-7.82 47.07-5.29L47.07-5.29L47.07-5.18Q47.07-2.71 45.70-1.25Q44.33 0.20 41.98 0.20L41.98 0.20Q39.73 0.20 38.36-1.16Q36.99-2.51 36.88-4.82L36.88-4.82ZM40.18-5.77L40.17-5.18Q40.17-3.71 40.63-3.03Q41.08-2.34 41.98-2.34L41.98-2.34Q43.74-2.34 43.78-5.05L43.78-5.05L43.78-5.38Q43.78-8.22 41.96-8.22L41.96-8.22Q40.31-8.22 40.18-5.77L40.18-5.77Z"></path></g></g></svg><style>@media (prefers-color-scheme: light) { :root { filter: contrast(1) brightness(1); } }
@media (prefers-color-scheme: dark) { :root { filter: none; } }
</style></svg>